<svg id="svg" version="1.1" xmlns="http://www.w3.org/2000/svg" xmlns:xlink="http://www.w3.org/1999/xlink" width="400" height="137.47362074163402" viewBox="0, 0, 400,137.47362074163402"><g id="svgg"><path id="path0" d="M311.229 0.164 C 311.033 0.243,310.358 0.435,309.729 0.591 C 308.815 0.818,305.552 2.003,303.583 2.823 C 300.701 4.024,294.922 6.958,293.584 7.899 C 293.309 8.092,292.833 8.386,292.525 8.551 C 292.217 8.717,291.879 8.923,291.774 9.009 C 291.669 9.095,290.758 9.711,289.750 10.379 C 287.412 11.927,286.763 12.386,286.694 12.542 C 286.664 12.610,286.571 12.667,286.488 12.667 C 286.405 12.667,286.205 12.774,286.044 12.905 C 285.882 13.036,285.075 13.650,284.250 14.269 C 283.425 14.889,282.712 15.438,282.667 15.490 C 282.621 15.542,282.021 16.034,281.333 16.583 C 280.646 17.133,280.046 17.620,280.000 17.666 C 279.954 17.712,279.392 18.200,278.751 18.750 C 278.111 19.300,277.361 19.955,277.085 20.205 C 276.809 20.456,276.283 20.932,275.917 21.265 C 273.843 23.146,267.519 29.562,265.917 31.410 C 265.367 32.044,264.642 32.868,264.307 33.240 C 263.972 33.612,263.008 34.779,262.166 35.833 C 261.323 36.887,260.501 37.908,260.339 38.101 C 260.176 38.295,259.529 39.157,258.901 40.018 C 258.273 40.879,257.677 41.658,257.578 41.750 C 257.243 42.059,256.500 43.143,256.500 43.322 C 256.500 43.420,256.441 43.500,256.369 43.500 C 256.297 43.500,256.107 43.722,255.947 43.994 C 255.786 44.266,255.562 44.584,255.447 44.702 C 255.333 44.820,254.938 45.367,254.570 45.917 C 249.218 53.901,248.667 54.747,248.667 54.981 C 248.667 55.083,248.605 55.167,248.530 55.167 C 248.454 55.167,248.226 55.485,248.023 55.875 C 247.605 56.678,247.290 57.211,247.163 57.333 C 247.116 57.379,246.708 58.054,246.257 58.833 C 245.806 59.612,244.981 61.038,244.423 62.000 C 243.865 62.962,243.274 64.012,243.111 64.333 C 242.947 64.654,242.584 65.329,242.303 65.833 C 240.162 69.678,237.390 75.282,234.737 81.125 C 234.477 81.698,234.212 82.167,234.149 82.167 C 234.026 82.167,233.970 82.064,231.665 77.583 C 226.992 68.501,226.526 67.643,224.831 65.000 C 224.567 64.587,224.227 64.010,224.076 63.716 C 223.926 63.422,223.697 63.094,223.568 62.987 C 223.439 62.880,223.333 62.734,223.333 62.663 C 223.333 62.423,220.065 57.600,219.542 57.069 C 219.427 56.952,219.333 56.783,219.333 56.692 C 219.333 56.602,219.277 56.503,219.207 56.472 C 219.138 56.442,218.819 56.079,218.499 55.667 C 218.179 55.255,217.767 54.730,217.584 54.501 C 215.520 51.912,211.066 48.102,208.947 47.112 C 205.731 45.609,201.162 45.496,197.917 46.839 C 193.947 48.481,192.973 49.510,194.781 50.151 C 195.131 50.274,195.500 50.441,195.601 50.522 C 195.702 50.602,196.152 50.860,196.601 51.096 C 197.050 51.332,197.679 51.694,198.000 51.901 C 199.987 53.185,200.590 53.597,200.639 53.708 C 200.669 53.777,200.801 53.833,200.931 53.833 C 201.060 53.833,201.167 53.896,201.167 53.972 C 201.167 54.048,201.506 54.354,201.920 54.651 C 203.871 56.052,208.492 60.644,210.329 63.005 C 210.647 63.415,210.952 63.788,211.006 63.833 C 211.122 63.932,214.508 68.615,214.750 69.012 C 214.842 69.163,215.292 69.900,215.750 70.652 C 216.208 71.403,216.764 72.333,216.986 72.718 C 217.207 73.102,217.523 73.642,217.689 73.917 C 217.854 74.192,218.144 74.717,218.333 75.083 C 218.523 75.450,218.813 75.975,218.978 76.250 C 220.094 78.108,222.731 83.365,224.329 86.917 C 224.494 87.283,224.825 88.010,225.065 88.531 C 225.304 89.053,225.500 89.566,225.500 89.672 C 225.500 89.778,225.605 90.064,225.733 90.308 C 225.860 90.551,226.165 91.275,226.409 91.917 C 226.653 92.558,226.961 93.296,227.093 93.555 C 227.225 93.815,227.333 94.167,227.333 94.337 C 227.333 94.507,227.399 94.687,227.478 94.737 C 227.558 94.786,227.672 95.067,227.730 95.361 C 227.789 95.654,227.945 96.013,228.076 96.158 C 228.429 96.548,230.565 103.227,230.531 103.833 C 230.523 103.971,230.594 104.383,230.689 104.750 C 230.783 105.117,230.924 105.679,231.001 106.000 C 231.077 106.321,231.258 107.033,231.401 107.583 C 231.545 108.133,232.082 110.308,232.594 112.417 C 233.708 116.994,233.644 116.899,234.301 114.963 C 234.888 113.232,235.493 111.549,236.415 109.083 C 237.209 106.960,238.002 104.492,237.994 104.167 C 237.990 104.030,238.571 102.360,239.285 100.458 L 240.582 97.000 241.369 97.000 C 242.000 97.000,242.137 96.950,242.060 96.750 C 242.008 96.612,241.828 96.500,241.662 96.500 C 240.754 96.500,240.755 96.489,241.844 93.917 C 241.921 93.733,242.329 92.721,242.750 91.667 C 243.171 90.612,243.597 89.563,243.698 89.333 C 243.919 88.829,244.239 88.064,244.466 87.500 C 244.558 87.271,244.781 86.746,244.962 86.333 C 245.142 85.921,245.346 85.396,245.415 85.167 C 245.484 84.938,245.600 84.675,245.672 84.583 C 245.743 84.492,246.068 83.779,246.392 83.000 C 246.716 82.221,247.173 81.190,247.407 80.709 C 247.642 80.228,247.833 79.797,247.833 79.751 C 247.833 79.466,253.429 68.143,254.753 65.750 C 255.159 65.017,255.542 64.313,255.605 64.187 C 255.667 64.061,256.082 63.326,256.526 62.554 C 256.970 61.783,257.333 61.080,257.333 60.992 C 257.333 60.905,257.391 60.833,257.462 60.833 C 257.533 60.833,257.737 60.552,257.916 60.208 C 258.095 59.865,258.769 58.734,259.413 57.696 C 260.057 56.657,260.658 55.681,260.750 55.525 C 260.842 55.370,261.085 55.008,261.292 54.721 C 261.498 54.434,261.667 54.123,261.667 54.030 C 261.667 53.937,261.723 53.836,261.792 53.806 C 261.931 53.744,262.881 52.389,263.058 52.000 C 263.322 51.421,266.948 46.082,267.666 45.215 C 267.758 45.105,267.833 44.942,267.833 44.854 C 267.833 44.766,267.896 44.669,267.972 44.639 C 268.049 44.608,268.552 43.983,269.090 43.250 C 269.629 42.517,270.401 41.504,270.805 41.000 C 271.210 40.496,271.775 39.789,272.062 39.429 C 272.349 39.069,272.996 38.273,273.500 37.660 C 274.004 37.047,274.992 35.842,275.694 34.981 C 276.924 33.475,277.190 33.154,277.916 32.306 C 278.099 32.092,278.502 31.617,278.811 31.250 C 280.305 29.479,282.512 27.168,287.250 22.419 C 292.229 17.428,294.304 15.454,297.333 12.824 C 298.112 12.148,298.787 11.553,298.833 11.503 C 298.879 11.453,299.442 10.963,300.083 10.414 C 300.725 9.866,301.287 9.379,301.333 9.333 C 301.379 9.287,301.979 8.800,302.667 8.250 C 303.354 7.700,303.954 7.208,304.000 7.155 C 304.128 7.008,307.959 4.008,309.083 3.174 C 309.633 2.766,310.178 2.340,310.293 2.227 C 310.408 2.114,311.102 1.599,311.835 1.082 C 312.567 0.566,313.167 0.111,313.167 0.072 C 313.167 -0.058,311.592 0.018,311.229 0.164 " stroke="none" fill="#fb7b0c" fill-rule="evenodd"></path><path id="path1" d="M40.167 46.000 C 38.370 46.123,36.114 46.492,35.167 46.818 C 34.938 46.897,34.412 47.057,34.000 47.173 C 32.610 47.565,28.977 49.395,27.835 50.278 C 22.473 54.428,19.505 59.271,18.098 66.167 C 17.597 68.622,17.500 69.869,17.502 73.865 C 17.504 80.472,18.111 83.837,20.106 88.296 C 20.323 88.780,20.500 89.211,20.500 89.254 C 20.500 90.177,24.102 94.760,26.530 96.928 C 28.529 98.713,32.062 100.566,34.917 101.327 C 38.346 102.241,43.780 102.564,46.417 102.010 C 46.967 101.894,47.770 101.737,48.202 101.661 C 51.285 101.116,55.544 98.337,57.391 95.667 C 57.819 95.049,57.920 94.975,57.968 95.250 C 58.699 99.413,60.347 100.846,64.542 100.965 L 67.167 101.040 67.167 86.615 L 67.167 72.190 66.292 72.010 C 65.704 71.888,62.001 71.843,55.000 71.873 L 44.583 71.917 44.537 74.162 C 44.477 77.016,44.774 78.150,45.924 79.458 C 46.347 79.940,46.793 80.333,46.916 80.333 C 47.038 80.333,47.164 80.408,47.194 80.498 C 47.411 81.140,49.189 81.408,52.976 81.372 C 56.316 81.340,56.691 81.363,56.600 81.600 C 56.544 81.745,56.454 82.064,56.399 82.307 C 55.108 88.053,51.081 91.670,45.378 92.206 C 35.893 93.098,29.870 87.298,28.999 76.435 C 28.274 67.392,31.266 60.075,36.846 57.244 C 40.928 55.173,47.272 55.435,50.969 57.827 C 52.001 58.495,52.760 59.200,53.463 60.143 C 53.711 60.477,53.960 60.788,54.016 60.833 C 54.071 60.879,54.214 61.104,54.332 61.333 C 55.645 63.868,56.942 64.333,62.694 64.333 L 66.827 64.333 66.737 63.542 C 65.461 52.304,54.433 45.023,40.167 46.000 M177.167 71.625 L 177.167 95.667 175.625 95.676 C 174.777 95.682,173.033 95.747,171.750 95.822 C 169.022 95.980,169.166 96.024,169.803 95.219 C 170.978 93.732,171.961 91.267,172.414 88.667 C 172.787 86.522,172.780 69.511,172.405 67.893 C 172.152 66.802,171.380 64.975,171.125 64.861 C 171.056 64.831,171.000 64.708,171.000 64.588 C 171.000 63.083,165.494 59.938,161.833 59.353 C 148.951 57.294,139.798 61.346,138.677 69.606 L 138.560 70.470 140.655 70.592 C 141.807 70.659,144.160 70.669,145.883 70.615 L 149.015 70.516 150.049 69.451 C 151.849 67.597,155.273 67.079,159.083 68.084 C 163.036 69.127,163.269 72.362,159.500 73.862 C 157.621 74.611,156.523 74.849,152.333 75.421 C 146.603 76.203,143.082 77.596,140.576 80.076 C 139.053 81.582,138.870 81.842,138.350 83.239 C 137.222 86.270,137.206 91.118,138.315 94.124 C 138.611 94.927,138.897 95.484,139.763 96.948 C 140.164 97.625,140.054 97.718,138.788 97.780 C 136.900 97.873,133.117 98.176,130.833 98.417 C 129.596 98.548,128.220 98.686,127.777 98.725 L 126.971 98.796 127.737 98.251 C 129.843 96.754,132.061 94.081,133.019 91.888 C 133.457 90.884,134.333 88.497,134.333 88.308 C 134.333 88.230,132.235 88.167,129.670 88.167 C 124.054 88.167,124.189 88.132,122.166 90.090 C 120.219 91.975,118.910 92.485,116.000 92.492 C 111.543 92.504,108.572 89.640,108.088 84.864 C 108.029 84.285,107.940 83.703,107.889 83.572 C 107.810 83.366,109.230 83.333,118.122 83.333 C 123.800 83.333,129.931 83.284,131.746 83.223 L 135.047 83.112 134.931 79.931 C 134.749 74.898,134.027 71.512,132.443 68.267 C 130.715 64.728,128.285 62.290,124.946 60.748 C 113.319 55.376,100.565 60.584,97.592 71.917 C 96.478 76.167,96.238 84.159,97.154 86.553 C 97.253 86.811,97.333 87.186,97.333 87.386 C 97.332 88.049,98.344 90.959,99.070 92.381 C 100.832 95.834,103.530 98.468,107.010 100.132 C 108.299 100.748,108.360 100.800,107.905 100.891 C 106.955 101.079,105.398 101.316,103.917 101.497 C 103.092 101.598,101.667 101.793,100.750 101.930 C 99.833 102.068,98.596 102.248,98.000 102.332 C 96.659 102.519,93.881 102.945,92.000 103.251 C 91.221 103.378,89.983 103.567,89.250 103.672 C 88.517 103.776,87.354 103.961,86.667 104.082 C 85.979 104.203,84.854 104.389,84.167 104.495 C 82.923 104.688,81.371 104.952,78.667 105.432 C 77.887 105.570,76.800 105.760,76.250 105.855 C 75.313 106.016,74.234 106.217,71.417 106.753 C 70.775 106.876,69.762 107.062,69.167 107.167 C 68.571 107.272,67.596 107.458,67.000 107.581 C 66.404 107.704,65.467 107.892,64.917 108.000 C 63.731 108.232,61.865 108.622,60.875 108.845 C 60.485 108.933,59.435 109.152,58.541 109.331 C 56.503 109.741,52.619 110.569,51.083 110.922 C 50.442 111.070,49.392 111.298,48.750 111.430 C 48.108 111.561,47.171 111.777,46.667 111.909 C 46.163 112.040,44.887 112.341,43.833 112.576 C 42.779 112.811,41.504 113.113,41.000 113.246 C 40.496 113.379,38.508 113.872,36.583 114.340 C 34.658 114.809,32.708 115.298,32.250 115.425 C 31.792 115.553,30.967 115.765,30.417 115.896 C 29.306 116.162,25.875 117.072,24.583 117.444 C 24.125 117.576,23.488 117.748,23.167 117.826 C 22.575 117.970,21.265 118.332,19.750 118.770 C 19.292 118.902,18.386 119.149,17.737 119.317 C 17.089 119.486,16.301 119.707,15.987 119.809 C 15.674 119.911,14.742 120.186,13.917 120.420 C 13.092 120.654,11.779 121.033,11.000 121.264 C 10.221 121.494,9.171 121.802,8.667 121.948 C 8.162 122.094,7.563 122.273,7.333 122.345 C 7.104 122.418,6.129 122.715,5.167 123.006 C 1.412 124.141,0.081 124.555,0.014 124.610 C -0.297 124.865,1.380 124.682,3.167 124.265 C 3.763 124.126,4.962 123.861,5.833 123.676 C 6.704 123.491,7.717 123.269,8.083 123.183 C 9.815 122.776,11.000 122.513,11.917 122.335 C 12.467 122.227,13.404 122.035,14.000 121.907 C 15.326 121.621,17.083 121.261,18.417 121.000 C 18.967 120.892,19.904 120.704,20.500 120.581 C 21.096 120.458,22.071 120.272,22.667 120.167 C 23.262 120.062,24.238 119.875,24.833 119.753 C 26.421 119.425,28.432 119.040,29.667 118.827 C 30.262 118.724,31.313 118.537,32.000 118.412 C 32.688 118.286,33.700 118.106,34.250 118.011 C 34.800 117.916,35.887 117.725,36.667 117.585 C 40.136 116.963,40.823 116.844,42.000 116.662 C 42.688 116.555,43.813 116.370,44.500 116.250 C 45.188 116.130,46.313 115.947,47.000 115.843 C 47.688 115.739,48.962 115.538,49.833 115.397 C 53.559 114.794,54.319 114.676,55.583 114.504 C 56.317 114.404,57.629 114.216,58.500 114.085 C 59.371 113.954,60.608 113.773,61.250 113.682 C 61.892 113.590,63.204 113.403,64.167 113.266 C 67.014 112.859,69.660 112.495,71.083 112.315 C 71.817 112.223,73.204 112.038,74.167 111.905 C 76.212 111.623,79.096 111.257,81.333 110.996 C 82.204 110.894,83.704 110.707,84.667 110.581 C 85.629 110.454,87.204 110.268,88.167 110.168 C 89.795 109.998,90.821 109.883,96.333 109.252 C 97.479 109.121,99.317 108.933,100.417 108.833 C 101.517 108.734,103.392 108.547,104.583 108.419 C 105.775 108.291,107.725 108.104,108.917 108.005 C 110.108 107.905,112.246 107.716,113.667 107.583 C 119.031 107.082,121.829 106.842,124.333 106.667 C 125.754 106.568,128.267 106.380,129.917 106.250 C 131.567 106.121,134.192 105.936,135.750 105.840 C 137.308 105.745,140.308 105.557,142.417 105.422 C 168.241 103.777,198.719 103.228,226.857 103.899 L 230.465 103.985 230.378 103.617 C 230.112 102.485,228.193 96.313,228.065 96.179 C 227.924 96.032,219.264 95.791,200.125 95.403 L 194.500 95.289 194.500 94.083 L 194.500 92.876 192.204 92.803 C 187.934 92.667,188.266 93.786,188.195 79.292 L 188.138 67.667 188.694 67.661 C 192.459 67.621,194.500 65.510,194.500 61.653 L 194.500 59.667 191.308 59.667 L 188.116 59.667 188.230 56.375 C 188.484 48.987,187.052 47.424,180.132 47.535 L 177.167 47.583 177.167 71.625 M294.599 47.667 C 294.579 47.712,294.567 59.750,294.573 74.417 L 294.583 101.083 300.167 101.083 L 305.750 101.083 305.750 76.333 L 305.750 51.583 305.292 50.651 C 304.460 48.957,303.300 48.054,301.469 47.676 C 300.559 47.489,294.681 47.480,294.599 47.667 M271.667 58.766 C 265.606 59.366,262.899 60.365,260.149 63.016 C 258.231 64.866,256.500 68.235,256.500 70.120 L 256.500 70.667 261.736 70.667 L 266.972 70.667 267.581 69.836 C 269.881 66.703,278.181 66.779,279.813 69.947 C 281.001 72.255,278.291 74.289,273.083 74.996 C 264.842 76.115,261.171 77.363,258.439 79.975 C 254.468 83.770,254.234 93.004,258.000 97.334 C 258.814 98.269,258.866 98.243,256.632 98.023 C 249.532 97.324,243.656 96.949,242.036 97.090 L 240.700 97.207 240.269 98.271 C 239.853 99.300,239.240 100.870,238.717 102.250 C 238.577 102.617,238.397 103.089,238.315 103.300 C 237.932 104.288,238.005 104.334,239.958 104.330 C 242.313 104.326,252.856 104.862,261.500 105.425 C 263.563 105.560,266.487 105.747,268.000 105.841 C 269.512 105.936,272.025 106.120,273.583 106.250 C 275.142 106.381,277.542 106.569,278.917 106.668 C 281.390 106.848,284.402 107.115,289.250 107.584 C 290.625 107.718,292.650 107.907,293.750 108.005 C 294.850 108.102,296.688 108.287,297.833 108.415 C 298.979 108.542,300.742 108.729,301.750 108.829 C 303.865 109.040,307.079 109.405,309.833 109.748 C 310.887 109.879,312.500 110.067,313.417 110.166 C 314.333 110.264,315.871 110.451,316.833 110.580 C 317.796 110.710,319.258 110.899,320.083 111.000 C 322.084 111.246,324.874 111.619,326.917 111.914 C 327.833 112.047,329.221 112.237,330.000 112.336 C 330.779 112.436,332.129 112.625,333.000 112.758 C 336.036 113.220,337.760 113.475,339.167 113.671 C 339.946 113.779,341.146 113.967,341.833 114.088 C 342.521 114.210,343.721 114.397,344.500 114.504 C 345.279 114.611,346.292 114.774,346.750 114.865 C 347.208 114.956,347.996 115.088,348.500 115.159 C 349.672 115.323,353.332 115.929,355.167 116.263 C 355.946 116.405,357.033 116.594,357.583 116.684 C 358.133 116.774,359.146 116.953,359.833 117.083 C 362.485 117.582,363.792 117.819,364.917 118.005 C 365.558 118.111,366.571 118.298,367.167 118.420 C 367.762 118.543,368.738 118.728,369.333 118.833 C 369.929 118.937,370.754 119.100,371.167 119.195 C 371.579 119.289,372.292 119.425,372.750 119.497 C 373.701 119.647,376.526 120.202,378.250 120.578 C 379.655 120.885,382.660 121.503,383.583 121.675 C 384.759 121.893,388.910 122.792,392.750 123.659 C 393.117 123.742,394.317 124.007,395.417 124.250 C 396.517 124.492,397.873 124.805,398.431 124.946 C 400.538 125.477,399.984 125.030,397.583 124.261 C 396.208 123.820,394.558 123.289,393.917 123.080 C 393.275 122.871,392.300 122.571,391.750 122.414 C 391.200 122.257,390.450 122.025,390.083 121.899 C 389.717 121.772,389.004 121.558,388.500 121.423 C 387.996 121.287,387.058 121.025,386.417 120.840 C 385.775 120.655,384.537 120.306,383.667 120.066 C 382.167 119.651,381.737 119.534,380.458 119.186 C 380.160 119.105,379.317 118.873,378.583 118.669 C 377.850 118.466,376.800 118.191,376.250 118.058 C 375.700 117.926,374.875 117.715,374.417 117.590 C 373.958 117.465,372.796 117.165,371.833 116.922 C 370.871 116.680,369.671 116.378,369.167 116.251 C 368.662 116.124,367.875 115.936,367.417 115.833 C 366.958 115.731,366.171 115.541,365.667 115.412 C 364.406 115.089,359.527 113.939,358.250 113.664 C 357.883 113.585,357.096 113.407,356.500 113.268 C 355.904 113.130,354.892 112.894,354.250 112.745 C 353.608 112.596,352.783 112.409,352.417 112.330 C 352.050 112.250,351.188 112.063,350.500 111.914 C 349.813 111.765,348.875 111.566,348.417 111.471 C 347.958 111.376,347.133 111.200,346.583 111.081 C 344.019 110.523,343.179 110.347,342.250 110.173 C 341.700 110.070,340.762 109.882,340.167 109.755 C 339.571 109.628,338.596 109.439,338.000 109.334 C 337.404 109.230,336.429 109.041,335.833 108.915 C 333.960 108.519,332.291 108.196,331.083 107.995 C 330.442 107.889,329.429 107.703,328.833 107.583 C 328.237 107.463,327.225 107.278,326.583 107.172 C 325.942 107.065,324.854 106.875,324.167 106.749 C 321.722 106.301,320.068 106.012,318.917 105.833 C 318.275 105.734,317.150 105.547,316.417 105.418 C 314.989 105.167,312.430 104.751,310.667 104.484 C 310.071 104.393,308.946 104.215,308.167 104.088 C 307.387 103.962,306.112 103.773,305.333 103.670 C 304.554 103.567,303.242 103.377,302.417 103.247 C 299.788 102.832,297.627 102.519,296.083 102.329 C 295.258 102.227,293.871 102.040,293.000 101.913 C 292.129 101.786,290.742 101.600,289.917 101.499 C 289.092 101.398,287.629 101.212,286.667 101.084 C 285.704 100.957,284.167 100.764,283.250 100.655 C 281.078 100.397,280.908 100.297,281.895 99.860 C 285.660 98.195,288.796 94.651,289.739 90.999 C 289.893 90.404,290.091 89.654,290.180 89.333 C 290.824 87.008,290.834 69.504,290.193 67.421 C 289.011 63.582,286.278 61.155,281.583 59.778 C 279.467 59.157,273.681 58.566,271.667 58.766 M365.917 58.771 C 362.120 59.182,361.214 59.370,359.234 60.161 C 351.155 63.387,347.151 72.174,348.409 83.917 C 348.878 88.290,349.440 90.046,351.717 94.250 C 352.150 95.050,355.543 98.480,356.250 98.833 C 356.525 98.970,356.787 99.126,356.833 99.179 C 357.113 99.501,359.344 100.514,360.833 100.995 C 363.276 101.783,369.019 102.008,371.825 101.424 C 379.087 99.914,383.825 95.581,385.911 88.542 L 386.022 88.167 381.252 88.167 C 375.601 88.167,375.704 88.140,373.818 90.077 C 370.227 93.763,363.688 93.296,361.086 89.167 C 360.347 87.994,359.552 85.163,359.506 83.542 C 359.501 83.377,362.003 83.333,371.474 83.333 C 378.060 83.333,384.144 83.284,384.993 83.224 L 386.537 83.114 386.457 79.682 C 386.413 77.794,386.289 75.800,386.181 75.250 C 386.074 74.700,385.909 73.837,385.816 73.333 C 384.492 66.178,379.346 60.743,372.583 59.358 C 370.661 58.964,367.059 58.647,365.917 58.771 M90.083 59.579 C 89.992 59.608,89.242 59.722,88.417 59.832 C 87.122 60.005,85.962 60.252,83.750 60.826 C 78.259 62.250,73.603 67.094,71.888 73.167 C 71.116 75.902,71.130 75.642,71.051 88.708 L 70.976 101.167 76.571 101.167 L 82.167 101.167 82.168 89.792 C 82.169 82.679,82.235 78.011,82.344 77.333 C 83.103 72.614,85.753 70.833,92.018 70.833 L 94.500 70.833 94.500 65.167 L 94.500 59.500 92.375 59.513 C 91.206 59.520,90.175 59.550,90.083 59.579 M309.333 72.197 C 309.333 88.951,309.505 90.614,311.635 94.500 C 316.504 103.385,336.342 104.181,342.780 95.750 C 345.410 92.306,345.656 90.348,345.662 72.875 L 345.667 59.500 342.413 59.500 C 338.010 59.500,336.856 59.905,335.595 61.895 C 334.666 63.360,334.667 63.355,334.667 75.634 C 334.667 82.595,334.602 87.298,334.498 87.846 C 333.291 94.208,323.191 94.881,320.939 88.750 C 320.813 88.407,320.728 83.739,320.669 73.917 L 320.583 59.583 314.958 59.539 L 309.333 59.496 309.333 72.197 M118.468 68.437 C 120.249 69.100,121.711 70.378,122.392 71.867 C 122.736 72.617,123.516 75.706,123.394 75.829 C 123.282 75.941,108.055 75.945,107.947 75.833 C 107.759 75.638,108.454 72.774,108.893 71.940 C 110.562 68.768,114.997 67.146,118.468 68.437 M370.404 68.585 C 373.076 69.767,374.023 71.075,374.883 74.775 L 375.121 75.799 372.185 75.924 C 369.486 76.038,359.697 75.920,359.549 75.771 C 359.174 75.397,360.434 71.811,361.332 70.693 C 363.269 68.283,367.499 67.300,370.404 68.585 M162.071 86.000 C 161.173 90.464,158.042 93.000,153.428 93.000 C 149.945 93.000,148.148 91.591,147.877 88.649 C 147.565 85.258,149.646 83.608,155.833 82.341 C 157.628 81.974,161.275 80.879,162.000 80.490 C 162.396 80.278,162.446 84.135,162.071 86.000 M280.112 83.292 C 279.925 88.716,278.427 91.179,274.500 92.519 C 269.360 94.274,264.939 91.615,265.850 87.316 C 266.479 84.350,267.351 83.857,275.417 81.906 C 277.828 81.322,278.232 81.195,279.500 80.619 C 279.821 80.474,280.113 80.350,280.149 80.344 C 280.185 80.338,280.168 81.665,280.112 83.292 M87.875 124.779 L 86.833 124.849 86.833 131.091 L 86.833 137.333 88.167 137.333 L 89.500 137.333 89.500 135.167 L 89.500 133.000 90.827 133.000 C 93.868 133.000,95.500 131.539,95.500 128.817 C 95.500 125.548,93.347 124.408,87.875 124.779 M120.208 124.780 L 119.000 124.848 119.001 130.216 C 119.002 133.168,119.050 135.977,119.108 136.458 L 119.213 137.333 120.440 137.333 L 121.667 137.333 121.667 134.946 L 121.667 132.558 122.161 132.630 C 122.814 132.726,123.465 133.635,125.081 136.708 L 125.409 137.333 126.788 137.333 C 128.653 137.333,128.651 137.205,126.739 134.077 L 125.716 132.405 126.414 131.799 C 128.111 130.322,128.257 127.502,126.717 125.917 C 125.788 124.960,123.643 124.585,120.208 124.780 M153.123 124.782 L 151.329 124.845 151.373 131.047 L 151.417 137.250 155.708 137.294 L 160.000 137.339 160.000 136.086 L 160.000 134.833 157.083 134.833 L 154.167 134.833 154.167 133.500 L 154.167 132.167 156.667 132.167 L 159.167 132.167 159.167 130.917 L 159.167 129.667 156.667 129.667 L 154.167 129.667 154.167 128.504 L 154.167 127.342 156.875 127.296 L 159.583 127.250 159.632 126.042 L 159.681 124.833 158.282 124.833 C 157.512 124.833,156.440 124.808,155.899 124.776 C 155.359 124.744,154.110 124.747,153.123 124.782 M220.292 124.783 L 219.833 124.855 219.833 131.094 L 219.833 137.333 221.167 137.333 L 222.500 137.333 222.500 131.083 L 222.500 124.833 221.958 124.831 C 221.660 124.830,221.267 124.802,221.083 124.769 C 220.900 124.737,220.544 124.743,220.292 124.783 M248.482 124.783 L 246.881 124.845 246.774 126.114 C 246.635 127.759,246.635 134.412,246.774 136.058 L 246.882 137.333 251.024 137.333 L 255.167 137.333 255.167 136.604 C 255.167 136.203,255.214 135.641,255.271 135.354 L 255.375 134.833 252.438 134.833 L 249.500 134.833 249.500 133.500 L 249.500 132.167 252.000 132.167 L 254.500 132.167 254.500 130.917 L 254.500 129.667 252.000 129.667 L 249.500 129.667 249.500 128.500 L 249.500 127.333 252.077 127.333 C 254.363 127.333,254.672 127.300,254.806 127.042 C 254.990 126.686,255.158 125.013,255.018 124.931 C 254.837 124.826,250.128 124.720,248.482 124.783 M280.000 124.811 L 278.750 124.917 278.750 131.083 L 278.750 137.250 280.208 137.298 L 281.667 137.346 281.667 135.006 L 281.667 132.667 282.127 132.667 C 282.594 132.667,282.821 132.902,283.332 133.917 C 283.471 134.192,283.954 135.073,284.407 135.875 L 285.230 137.333 286.615 137.333 C 288.164 137.333,288.199 137.298,287.741 136.203 C 287.471 135.555,286.023 133.144,285.818 133.000 C 285.504 132.779,285.653 132.357,286.259 131.750 C 287.195 130.813,287.500 130.052,287.500 128.654 C 287.500 125.494,285.292 124.362,280.000 124.811 M307.542 124.794 L 305.833 124.845 305.833 131.089 L 305.833 137.333 310.167 137.333 L 314.500 137.333 314.500 136.083 L 314.500 134.833 311.583 134.833 L 308.667 134.833 308.667 133.504 L 308.667 132.176 311.125 132.129 L 313.583 132.083 313.632 130.875 L 313.681 129.667 311.174 129.667 L 308.667 129.667 308.667 128.500 L 308.667 127.333 311.240 127.333 C 313.031 127.333,313.850 127.274,313.935 127.138 C 314.062 126.932,314.106 125.044,313.986 124.940 C 313.871 124.840,309.374 124.738,307.542 124.794 M183.540 131.042 L 183.583 137.250 184.792 137.299 L 186.000 137.348 186.000 133.974 C 186.000 130.545,186.068 130.266,186.545 131.750 C 186.834 132.649,187.614 134.719,188.478 136.883 C 188.656 137.328,188.710 137.348,189.613 137.300 L 190.561 137.250 191.052 136.083 C 191.322 135.442,191.646 134.680,191.772 134.391 C 191.897 134.103,192.001 133.803,192.001 133.725 C 192.002 133.647,192.261 132.908,192.577 132.083 L 193.151 130.583 193.159 133.958 L 193.167 137.333 194.500 137.333 L 195.833 137.333 195.833 131.083 L 195.833 124.833 194.182 124.833 L 192.531 124.833 192.194 125.875 C 192.008 126.448,191.698 127.329,191.504 127.833 C 191.070 128.965,190.390 130.822,190.024 131.873 C 189.720 132.750,189.574 132.851,189.418 132.292 C 189.361 132.085,189.212 131.654,189.088 131.333 C 188.964 131.012,188.564 129.962,188.200 129.000 C 187.836 128.037,187.330 126.706,187.076 126.042 L 186.614 124.833 185.055 124.833 L 183.496 124.833 183.540 131.042 M92.287 127.659 C 93.634 128.914,92.522 130.496,90.292 130.499 L 89.500 130.500 89.500 128.917 L 89.500 127.333 90.719 127.333 C 91.698 127.333,92.006 127.397,92.287 127.659 M124.308 127.516 C 124.814 127.693,124.833 127.734,124.831 128.641 C 124.827 129.987,124.759 130.046,123.097 130.133 L 121.667 130.208 121.667 128.771 L 121.667 127.333 122.725 127.333 C 123.307 127.333,124.020 127.416,124.308 127.516 M284.424 127.742 C 285.599 128.917,284.597 130.167,282.479 130.167 L 281.667 130.167 281.667 128.750 L 281.667 127.333 282.841 127.333 C 283.865 127.333,284.067 127.386,284.424 127.742 " stroke="none" fill="#040434" fill-rule="evenodd"></path><path id="path2" d="M240.605 97.132 C 240.560 97.204,240.781 97.234,241.095 97.197 C 241.409 97.160,241.667 97.101,241.667 97.065 C 241.667 96.940,240.686 97.001,240.605 97.132 " stroke="none" fill="#341c2c" fill-rule="evenodd"></path><path id="path3" d="" stroke="none" fill="#984c1c" fill-rule="evenodd"></path><path id="path4" d="M137.387 89.000 C 137.387 89.596,137.417 89.840,137.454 89.542 C 137.491 89.244,137.491 88.756,137.454 88.458 C 137.417 88.160,137.387 88.404,137.387 89.000 M153.292 124.787 C 153.590 124.824,154.077 124.824,154.375 124.787 C 154.673 124.750,154.429 124.720,153.833 124.720 C 153.237 124.720,152.994 124.750,153.292 124.787 M156.628 124.787 C 156.928 124.825,157.378 124.824,157.628 124.786 C 157.878 124.748,157.633 124.717,157.083 124.718 C 156.533 124.719,156.328 124.750,156.628 124.787 M184.788 124.787 C 185.084 124.824,185.609 124.824,185.955 124.788 C 186.300 124.752,186.058 124.722,185.417 124.721 C 184.775 124.721,184.492 124.750,184.788 124.787 M193.875 124.788 C 194.219 124.824,194.781 124.824,195.125 124.788 C 195.469 124.752,195.188 124.723,194.500 124.723 C 193.813 124.723,193.531 124.752,193.875 124.788 M248.628 124.787 C 248.928 124.825,249.378 124.824,249.628 124.786 C 249.878 124.748,249.633 124.717,249.083 124.718 C 248.533 124.719,248.328 124.750,248.628 124.787 M307.455 124.787 C 307.750 124.824,308.275 124.824,308.621 124.788 C 308.967 124.752,308.725 124.722,308.083 124.721 C 307.442 124.721,307.159 124.750,307.455 124.787 M311.121 124.787 C 311.417 124.824,311.942 124.824,312.288 124.788 C 312.634 124.752,312.392 124.722,311.750 124.721 C 311.108 124.721,310.825 124.750,311.121 124.787 " stroke="none" fill="#140c2c" fill-rule="evenodd"></path></g></svg>